<?xml version="1.0" standalone="no"?>
<!DOCTYPE svg PUBLIC "-//W3C//DTD SVG 20010904//EN"
 "http://www.w3.org/TR/2001/REC-SVG-20010904/DTD/svg10.dtd">
<svg version="1.0" xmlns="http://www.w3.org/2000/svg"
 width="20.000000pt" height="21.000000pt" viewBox="0 0 20.000000 21.000000"
 preserveAspectRatio="xMidYMid meet">
<metadata>
Created by potrace 1.15, written by Peter Selinger 2001-2017
</metadata>
<g transform="translate(0.000000,21.000000) scale(0.100000,-0.100000)"
fill="#000000" stroke="none">
<path d="M34 186 c-9 -15 -15 -41 -13 -63 1 -21 -3 -48 -9 -60 -15 -26 -16
-63 -2 -63 6 0 10 8 10 19 0 28 23 43 51 33 13 -5 37 -5 53 -1 34 10 56 -3 56
-32 0 -11 5 -19 10 -19 15 0 12 43 -4 66 -9 11 -12 30 -9 46 3 15 2 43 -1 63
l-7 35 -59 0 c-52 0 -62 -3 -76 -24z"/>
</g>
</svg>
